<mxfile host="app.diagrams.net" modified="2020-10-17T18:35:39.039Z" agent="5.0 (Windows NT 10.0; Win64; x64) AppleWebKit/537.36 (KHTML, like Gecko) Chrome/78.0.3904.108 Safari/537.36" etag="KjRwmsAIvZ_PmoPQN2JT" version="13.8.0" type="github">
  <diagram id="LLDYurQir0yFtpg_1M14" name="Page-1">
    <mxGraphModel dx="2249" dy="780" grid="1" gridSize="10" guides="1" tooltips="1" connect="1" arrows="1" fold="1" page="1" pageScale="1" pageWidth="827" pageHeight="1169" math="0" shadow="0">
      <root>
        <mxCell id="0" />
        <mxCell id="1" parent="0" />
        <mxCell id="xQus3RdIqMBXBSAXaxHi-4" value="" style="edgeStyle=orthogonalEdgeStyle;rounded=0;orthogonalLoop=1;jettySize=auto;html=1;" edge="1" parent="1" source="xQus3RdIqMBXBSAXaxHi-2" target="xQus3RdIqMBXBSAXaxHi-3">
          <mxGeometry relative="1" as="geometry" />
        </mxCell>
        <mxCell id="xQus3RdIqMBXBSAXaxHi-6" value="" style="edgeStyle=orthogonalEdgeStyle;rounded=0;orthogonalLoop=1;jettySize=auto;html=1;endArrow=none;endFill=0;" edge="1" parent="1" source="xQus3RdIqMBXBSAXaxHi-2" target="xQus3RdIqMBXBSAXaxHi-5">
          <mxGeometry relative="1" as="geometry" />
        </mxCell>
        <mxCell id="xQus3RdIqMBXBSAXaxHi-2" value="SIGN_UP" style="ellipse;whiteSpace=wrap;html=1;" vertex="1" parent="1">
          <mxGeometry x="70" y="150" width="100" height="80" as="geometry" />
        </mxCell>
        <mxCell id="xQus3RdIqMBXBSAXaxHi-8" value="" style="edgeStyle=orthogonalEdgeStyle;rounded=0;orthogonalLoop=1;jettySize=auto;html=1;endArrow=none;endFill=0;" edge="1" parent="1" source="xQus3RdIqMBXBSAXaxHi-3" target="xQus3RdIqMBXBSAXaxHi-7">
          <mxGeometry relative="1" as="geometry" />
        </mxCell>
        <mxCell id="xQus3RdIqMBXBSAXaxHi-3" value="LOGIN" style="whiteSpace=wrap;html=1;" vertex="1" parent="1">
          <mxGeometry x="60" y="320" width="120" height="60" as="geometry" />
        </mxCell>
        <mxCell id="xQus3RdIqMBXBSAXaxHi-5" value="DATA GETS ENTERED IN &lt;br&gt;USER&amp;nbsp;&lt;br&gt;SCHEMA" style="shape=step;perimeter=stepPerimeter;whiteSpace=wrap;html=1;fixedSize=1;" vertex="1" parent="1">
          <mxGeometry x="240" y="150" width="120" height="80" as="geometry" />
        </mxCell>
        <mxCell id="xQus3RdIqMBXBSAXaxHi-10" value="" style="rounded=0;orthogonalLoop=1;jettySize=auto;html=1;endArrow=none;endFill=0;exitX=0.5;exitY=1;exitDx=0;exitDy=0;" edge="1" parent="1" source="xQus3RdIqMBXBSAXaxHi-7" target="xQus3RdIqMBXBSAXaxHi-9">
          <mxGeometry relative="1" as="geometry">
            <Array as="points">
              <mxPoint x="660" y="550" />
            </Array>
          </mxGeometry>
        </mxCell>
        <mxCell id="xQus3RdIqMBXBSAXaxHi-19" style="edgeStyle=none;rounded=0;orthogonalLoop=1;jettySize=auto;html=1;exitX=0.5;exitY=1;exitDx=0;exitDy=0;endArrow=none;endFill=0;entryX=0.5;entryY=0;entryDx=0;entryDy=0;" edge="1" parent="1" source="xQus3RdIqMBXBSAXaxHi-7" target="xQus3RdIqMBXBSAXaxHi-12">
          <mxGeometry relative="1" as="geometry">
            <mxPoint x="570" y="800" as="targetPoint" />
            <Array as="points">
              <mxPoint x="800" y="550" />
              <mxPoint x="800" y="760" />
              <mxPoint x="460" y="760" />
            </Array>
          </mxGeometry>
        </mxCell>
        <mxCell id="xQus3RdIqMBXBSAXaxHi-20" style="edgeStyle=none;rounded=0;orthogonalLoop=1;jettySize=auto;html=1;exitX=0.5;exitY=1;exitDx=0;exitDy=0;entryX=0.75;entryY=0;entryDx=0;entryDy=0;endArrow=none;endFill=0;" edge="1" parent="1" source="xQus3RdIqMBXBSAXaxHi-7" target="xQus3RdIqMBXBSAXaxHi-11">
          <mxGeometry relative="1" as="geometry">
            <Array as="points">
              <mxPoint x="800" y="550" />
              <mxPoint x="800" y="760" />
              <mxPoint x="540" y="760" />
              <mxPoint x="290" y="760" />
            </Array>
          </mxGeometry>
        </mxCell>
        <mxCell id="xQus3RdIqMBXBSAXaxHi-25" style="edgeStyle=none;rounded=0;orthogonalLoop=1;jettySize=auto;html=1;exitX=0.5;exitY=1;exitDx=0;exitDy=0;entryX=0.5;entryY=0;entryDx=0;entryDy=0;endArrow=none;endFill=0;" edge="1" parent="1" source="xQus3RdIqMBXBSAXaxHi-7" target="xQus3RdIqMBXBSAXaxHi-24">
          <mxGeometry relative="1" as="geometry">
            <Array as="points">
              <mxPoint x="800" y="550" />
              <mxPoint x="800" y="1020" />
              <mxPoint x="460" y="1020" />
            </Array>
          </mxGeometry>
        </mxCell>
        <mxCell id="xQus3RdIqMBXBSAXaxHi-26" style="edgeStyle=none;rounded=0;orthogonalLoop=1;jettySize=auto;html=1;exitX=0.5;exitY=1;exitDx=0;exitDy=0;entryX=0.5;entryY=0;entryDx=0;entryDy=0;endArrow=none;endFill=0;" edge="1" parent="1" source="xQus3RdIqMBXBSAXaxHi-7" target="xQus3RdIqMBXBSAXaxHi-23">
          <mxGeometry relative="1" as="geometry">
            <Array as="points">
              <mxPoint x="800" y="550" />
              <mxPoint x="800" y="1020" />
              <mxPoint x="530" y="1020" />
              <mxPoint x="260" y="1020" />
            </Array>
          </mxGeometry>
        </mxCell>
        <mxCell id="xQus3RdIqMBXBSAXaxHi-36" style="edgeStyle=none;rounded=0;orthogonalLoop=1;jettySize=auto;html=1;exitX=0.5;exitY=1;exitDx=0;exitDy=0;entryX=0.5;entryY=0;entryDx=0;entryDy=0;endArrow=none;endFill=0;" edge="1" parent="1" source="xQus3RdIqMBXBSAXaxHi-7" target="xQus3RdIqMBXBSAXaxHi-35">
          <mxGeometry relative="1" as="geometry">
            <Array as="points">
              <mxPoint x="800" y="550" />
              <mxPoint x="800" y="1170" />
              <mxPoint x="580" y="1170" />
            </Array>
          </mxGeometry>
        </mxCell>
        <mxCell id="xQus3RdIqMBXBSAXaxHi-75" style="edgeStyle=none;rounded=0;orthogonalLoop=1;jettySize=auto;html=1;exitX=0;exitY=0.5;exitDx=0;exitDy=0;entryX=0;entryY=0.375;entryDx=0;entryDy=0;entryPerimeter=0;endArrow=classicThin;endFill=1;" edge="1" parent="1" source="xQus3RdIqMBXBSAXaxHi-7" target="xQus3RdIqMBXBSAXaxHi-2">
          <mxGeometry relative="1" as="geometry">
            <Array as="points">
              <mxPoint x="-100" y="490" />
              <mxPoint x="-100" y="180" />
            </Array>
          </mxGeometry>
        </mxCell>
        <mxCell id="xQus3RdIqMBXBSAXaxHi-80" style="edgeStyle=none;rounded=0;orthogonalLoop=1;jettySize=auto;html=1;exitX=0.5;exitY=1;exitDx=0;exitDy=0;entryX=0.5;entryY=0;entryDx=0;entryDy=0;endArrow=classicThin;endFill=1;" edge="1" parent="1" source="xQus3RdIqMBXBSAXaxHi-7" target="xQus3RdIqMBXBSAXaxHi-72">
          <mxGeometry relative="1" as="geometry">
            <Array as="points">
              <mxPoint x="660" y="550" />
              <mxPoint x="800" y="550" />
              <mxPoint x="800" y="1170" />
              <mxPoint x="800" y="1610" />
              <mxPoint x="570" y="1610" />
              <mxPoint x="380" y="1610" />
            </Array>
          </mxGeometry>
        </mxCell>
        <mxCell id="xQus3RdIqMBXBSAXaxHi-89" style="edgeStyle=none;rounded=0;orthogonalLoop=1;jettySize=auto;html=1;exitX=0.5;exitY=1;exitDx=0;exitDy=0;entryX=0.5;entryY=1;entryDx=0;entryDy=0;endArrow=none;endFill=0;strokeColor=#33001A;" edge="1" parent="1" source="xQus3RdIqMBXBSAXaxHi-7" target="xQus3RdIqMBXBSAXaxHi-87">
          <mxGeometry relative="1" as="geometry">
            <Array as="points">
              <mxPoint x="660" y="550" />
            </Array>
          </mxGeometry>
        </mxCell>
        <mxCell id="xQus3RdIqMBXBSAXaxHi-7" value="CHECKS&amp;nbsp;&lt;br&gt;IF&amp;nbsp;&lt;br&gt;USER&amp;nbsp;&lt;br&gt;DATA is&lt;br&gt;present" style="rhombus;whiteSpace=wrap;html=1;fillColor=#fff2cc;strokeColor=#d6b656;" vertex="1" parent="1">
          <mxGeometry x="60" y="430" width="120" height="120" as="geometry" />
        </mxCell>
        <mxCell id="xQus3RdIqMBXBSAXaxHi-15" value="" style="edgeStyle=none;rounded=0;orthogonalLoop=1;jettySize=auto;html=1;endArrow=none;endFill=0;" edge="1" parent="1" source="xQus3RdIqMBXBSAXaxHi-9" target="xQus3RdIqMBXBSAXaxHi-14">
          <mxGeometry relative="1" as="geometry" />
        </mxCell>
        <mxCell id="xQus3RdIqMBXBSAXaxHi-9" value="Search Train" style="whiteSpace=wrap;html=1;" vertex="1" parent="1">
          <mxGeometry x="600" y="660" width="120" height="60" as="geometry" />
        </mxCell>
        <mxCell id="xQus3RdIqMBXBSAXaxHi-62" style="edgeStyle=none;rounded=0;orthogonalLoop=1;jettySize=auto;html=1;exitX=0.5;exitY=1;exitDx=0;exitDy=0;entryX=0.5;entryY=0;entryDx=0;entryDy=0;endArrow=classicThin;endFill=1;" edge="1" parent="1" source="xQus3RdIqMBXBSAXaxHi-11" target="xQus3RdIqMBXBSAXaxHi-60">
          <mxGeometry relative="1" as="geometry" />
        </mxCell>
        <mxCell id="xQus3RdIqMBXBSAXaxHi-11" value="Cab to Bangalore" style="whiteSpace=wrap;html=1;" vertex="1" parent="1">
          <mxGeometry x="200" y="800" width="120" height="60" as="geometry" />
        </mxCell>
        <mxCell id="xQus3RdIqMBXBSAXaxHi-61" style="edgeStyle=none;rounded=0;orthogonalLoop=1;jettySize=auto;html=1;exitX=0.5;exitY=1;exitDx=0;exitDy=0;entryX=0.5;entryY=0;entryDx=0;entryDy=0;endArrow=classicThin;endFill=1;" edge="1" parent="1" source="xQus3RdIqMBXBSAXaxHi-12" target="xQus3RdIqMBXBSAXaxHi-59">
          <mxGeometry relative="1" as="geometry" />
        </mxCell>
        <mxCell id="xQus3RdIqMBXBSAXaxHi-12" value="Cab to Chennai" style="whiteSpace=wrap;html=1;" vertex="1" parent="1">
          <mxGeometry x="400" y="800" width="120" height="60" as="geometry" />
        </mxCell>
        <mxCell id="xQus3RdIqMBXBSAXaxHi-13" value="&lt;font style=&quot;font-size: 15px;&quot;&gt;SEARCH TRAIN SECTION&lt;/font&gt;" style="text;html=1;align=center;verticalAlign=middle;whiteSpace=wrap;rounded=0;fontColor=#FF0000;fontStyle=1;fontSize=15;" vertex="1" parent="1">
          <mxGeometry x="-20" y="590" width="220" height="50" as="geometry" />
        </mxCell>
        <mxCell id="xQus3RdIqMBXBSAXaxHi-17" value="" style="edgeStyle=none;rounded=0;orthogonalLoop=1;jettySize=auto;html=1;endArrow=none;endFill=0;" edge="1" parent="1" source="xQus3RdIqMBXBSAXaxHi-14" target="xQus3RdIqMBXBSAXaxHi-16">
          <mxGeometry relative="1" as="geometry" />
        </mxCell>
        <mxCell id="xQus3RdIqMBXBSAXaxHi-54" style="edgeStyle=none;rounded=0;orthogonalLoop=1;jettySize=auto;html=1;exitX=0.5;exitY=0;exitDx=0;exitDy=0;entryX=0.575;entryY=1.078;entryDx=0;entryDy=0;entryPerimeter=0;endArrow=classicThin;endFill=1;" edge="1" parent="1" source="xQus3RdIqMBXBSAXaxHi-14" target="xQus3RdIqMBXBSAXaxHi-51">
          <mxGeometry relative="1" as="geometry" />
        </mxCell>
        <mxCell id="xQus3RdIqMBXBSAXaxHi-55" style="edgeStyle=none;rounded=0;orthogonalLoop=1;jettySize=auto;html=1;exitX=0.5;exitY=1;exitDx=0;exitDy=0;entryX=0.571;entryY=0;entryDx=0;entryDy=0;entryPerimeter=0;endArrow=classicThin;endFill=1;" edge="1" parent="1" source="xQus3RdIqMBXBSAXaxHi-14" target="xQus3RdIqMBXBSAXaxHi-53">
          <mxGeometry relative="1" as="geometry" />
        </mxCell>
        <mxCell id="xQus3RdIqMBXBSAXaxHi-14" value="Travelers Details" style="whiteSpace=wrap;html=1;" vertex="1" parent="1">
          <mxGeometry x="380" y="660" width="120" height="60" as="geometry" />
        </mxCell>
        <mxCell id="xQus3RdIqMBXBSAXaxHi-16" value="Reviews" style="whiteSpace=wrap;html=1;" vertex="1" parent="1">
          <mxGeometry x="170" y="660" width="120" height="60" as="geometry" />
        </mxCell>
        <mxCell id="xQus3RdIqMBXBSAXaxHi-18" value="&lt;font style=&quot;font-size: 15px;&quot;&gt;FIND CAB SECTION&lt;/font&gt;" style="text;html=1;align=center;verticalAlign=middle;whiteSpace=wrap;rounded=0;fontColor=#FF0000;fontStyle=1;fontSize=15;" vertex="1" parent="1">
          <mxGeometry x="-35" y="770" width="220" height="50" as="geometry" />
        </mxCell>
        <mxCell id="xQus3RdIqMBXBSAXaxHi-21" value="&lt;font style=&quot;font-size: 35px&quot;&gt;WEB FLOW&lt;/font&gt;" style="text;html=1;strokeColor=none;fillColor=none;align=center;verticalAlign=middle;whiteSpace=wrap;rounded=0;strokeWidth=5;" vertex="1" parent="1">
          <mxGeometry x="10" y="80" width="260" height="40" as="geometry" />
        </mxCell>
        <mxCell id="xQus3RdIqMBXBSAXaxHi-22" value="&lt;font style=&quot;font-size: 15px;&quot;&gt;MOST PREFERRED TRAINS SECTION&lt;/font&gt;" style="text;html=1;align=center;verticalAlign=middle;whiteSpace=wrap;rounded=0;fontColor=#FF0000;fontStyle=1;fontSize=15;" vertex="1" parent="1">
          <mxGeometry x="-10" y="1000" width="220" height="50" as="geometry" />
        </mxCell>
        <mxCell id="xQus3RdIqMBXBSAXaxHi-23" value="Trains to Bangalore" style="whiteSpace=wrap;html=1;" vertex="1" parent="1">
          <mxGeometry x="200" y="1060" width="120" height="60" as="geometry" />
        </mxCell>
        <mxCell id="xQus3RdIqMBXBSAXaxHi-24" value="Trains to Chennai" style="whiteSpace=wrap;html=1;" vertex="1" parent="1">
          <mxGeometry x="400" y="1060" width="120" height="60" as="geometry" />
        </mxCell>
        <mxCell id="xQus3RdIqMBXBSAXaxHi-28" value="&lt;br&gt;&lt;font style=&quot;font-size: 16px&quot;&gt;&lt;b&gt;UPVOTE&lt;br&gt;&lt;/b&gt;&lt;/font&gt;" style="text;html=1;strokeColor=none;fillColor=none;align=center;verticalAlign=middle;whiteSpace=wrap;rounded=0;" vertex="1" parent="1">
          <mxGeometry x="310" y="1120" width="100" height="30" as="geometry" />
        </mxCell>
        <mxCell id="xQus3RdIqMBXBSAXaxHi-32" value="&lt;h1 style=&quot;font-family: &amp;#34;helvetica&amp;#34; ; text-align: left&quot;&gt;&lt;span style=&quot;font-weight: normal ; line-height: 1.2px&quot;&gt;&lt;font style=&quot;font-size: 11px&quot;&gt;With each upvote of train. The Page gets reloaded with updated points. Trains with the highest points are shown above.&lt;/font&gt;&lt;/span&gt;&lt;/h1&gt;" style="rounded=0;whiteSpace=wrap;html=1;strokeWidth=2;dashed=1;" vertex="1" parent="1">
          <mxGeometry x="200" y="1160" width="340" height="70" as="geometry" />
        </mxCell>
        <mxCell id="xQus3RdIqMBXBSAXaxHi-33" value="" style="endArrow=classic;startArrow=classic;html=1;exitX=0.341;exitY=-0.006;exitDx=0;exitDy=0;exitPerimeter=0;" edge="1" parent="1" source="xQus3RdIqMBXBSAXaxHi-32">
          <mxGeometry width="50" height="50" relative="1" as="geometry">
            <mxPoint x="220" y="1170" as="sourcePoint" />
            <mxPoint x="270" y="1120" as="targetPoint" />
          </mxGeometry>
        </mxCell>
        <mxCell id="xQus3RdIqMBXBSAXaxHi-34" value="" style="endArrow=classic;startArrow=classic;html=1;exitX=0.6;exitY=-0.006;exitDx=0;exitDy=0;exitPerimeter=0;entryX=0.359;entryY=0.993;entryDx=0;entryDy=0;entryPerimeter=0;" edge="1" parent="1" source="xQus3RdIqMBXBSAXaxHi-32" target="xQus3RdIqMBXBSAXaxHi-24">
          <mxGeometry width="50" height="50" relative="1" as="geometry">
            <mxPoint x="330" y="1160" as="sourcePoint" />
            <mxPoint x="280" y="1130" as="targetPoint" />
          </mxGeometry>
        </mxCell>
        <mxCell id="xQus3RdIqMBXBSAXaxHi-39" style="edgeStyle=none;rounded=0;orthogonalLoop=1;jettySize=auto;html=1;exitX=0;exitY=0.5;exitDx=0;exitDy=0;entryX=1;entryY=0.5;entryDx=0;entryDy=0;endArrow=none;endFill=0;" edge="1" parent="1" source="xQus3RdIqMBXBSAXaxHi-35" target="xQus3RdIqMBXBSAXaxHi-38">
          <mxGeometry relative="1" as="geometry" />
        </mxCell>
        <mxCell id="xQus3RdIqMBXBSAXaxHi-42" style="edgeStyle=none;rounded=0;orthogonalLoop=1;jettySize=auto;html=1;exitX=0.5;exitY=1;exitDx=0;exitDy=0;entryX=0.5;entryY=0;entryDx=0;entryDy=0;endArrow=classicThin;endFill=1;" edge="1" parent="1" source="xQus3RdIqMBXBSAXaxHi-35" target="xQus3RdIqMBXBSAXaxHi-40">
          <mxGeometry relative="1" as="geometry" />
        </mxCell>
        <mxCell id="xQus3RdIqMBXBSAXaxHi-45" style="edgeStyle=none;rounded=0;orthogonalLoop=1;jettySize=auto;html=1;exitX=0;exitY=1;exitDx=0;exitDy=0;endArrow=classicThin;endFill=1;" edge="1" parent="1" source="xQus3RdIqMBXBSAXaxHi-35">
          <mxGeometry relative="1" as="geometry">
            <mxPoint x="470" y="1410" as="targetPoint" />
          </mxGeometry>
        </mxCell>
        <mxCell id="xQus3RdIqMBXBSAXaxHi-35" value="Food" style="rounded=0;whiteSpace=wrap;html=1;strokeColor=#000000;strokeWidth=1;" vertex="1" parent="1">
          <mxGeometry x="520" y="1310" width="120" height="60" as="geometry" />
        </mxCell>
        <mxCell id="xQus3RdIqMBXBSAXaxHi-37" value="&lt;font style=&quot;font-size: 15px;&quot;&gt;FOOD SECTION&lt;/font&gt;" style="text;html=1;align=center;verticalAlign=middle;whiteSpace=wrap;rounded=0;fontColor=#FF0000;fontStyle=1;fontSize=15;" vertex="1" parent="1">
          <mxGeometry x="-50" y="1260" width="220" height="50" as="geometry" />
        </mxCell>
        <mxCell id="xQus3RdIqMBXBSAXaxHi-43" style="edgeStyle=none;rounded=0;orthogonalLoop=1;jettySize=auto;html=1;exitX=0;exitY=0.5;exitDx=0;exitDy=0;entryX=0;entryY=0;entryDx=0;entryDy=0;endArrow=classicThin;endFill=1;" edge="1" parent="1" source="xQus3RdIqMBXBSAXaxHi-38" target="xQus3RdIqMBXBSAXaxHi-35">
          <mxGeometry relative="1" as="geometry">
            <Array as="points">
              <mxPoint x="290" y="1340" />
              <mxPoint x="290" y="1280" />
              <mxPoint x="450" y="1280" />
            </Array>
          </mxGeometry>
        </mxCell>
        <mxCell id="xQus3RdIqMBXBSAXaxHi-44" value="&lt;b&gt;Redirect&lt;/b&gt;" style="edgeLabel;html=1;align=center;verticalAlign=middle;resizable=0;points=[];" vertex="1" connectable="0" parent="xQus3RdIqMBXBSAXaxHi-43">
          <mxGeometry x="-0.0877" y="4" relative="1" as="geometry">
            <mxPoint x="21" y="-6" as="offset" />
          </mxGeometry>
        </mxCell>
        <mxCell id="xQus3RdIqMBXBSAXaxHi-38" value="ViewStation Food" style="rounded=0;whiteSpace=wrap;html=1;strokeColor=#000000;strokeWidth=1;" vertex="1" parent="1">
          <mxGeometry x="320" y="1310" width="120" height="60" as="geometry" />
        </mxCell>
        <mxCell id="xQus3RdIqMBXBSAXaxHi-40" value="&lt;font style=&quot;font-size: 16px&quot;&gt;&lt;b&gt;ENTER FOOD DATA&lt;br&gt;&lt;/b&gt;&lt;/font&gt;" style="text;html=1;strokeColor=none;fillColor=none;align=center;verticalAlign=middle;whiteSpace=wrap;rounded=0;" vertex="1" parent="1">
          <mxGeometry x="510" y="1410" width="140" height="30" as="geometry" />
        </mxCell>
        <mxCell id="xQus3RdIqMBXBSAXaxHi-46" value="&lt;font style=&quot;font-size: 16px&quot;&gt;&lt;b&gt;Redirect Link to IRCTC E-CATERING&amp;nbsp;&lt;br&gt;Services&lt;br&gt;&lt;/b&gt;&lt;/font&gt;" style="text;html=1;strokeColor=none;fillColor=none;align=center;verticalAlign=middle;whiteSpace=wrap;rounded=0;" vertex="1" parent="1">
          <mxGeometry x="290" y="1420" width="190" height="30" as="geometry" />
        </mxCell>
        <mxCell id="xQus3RdIqMBXBSAXaxHi-51" value="&lt;b&gt;ADD REVIEW OF TRAIN&lt;/b&gt;" style="text;html=1;strokeColor=none;fillColor=none;align=center;verticalAlign=middle;whiteSpace=wrap;rounded=0;" vertex="1" parent="1">
          <mxGeometry x="360" y="620" width="140" height="20" as="geometry" />
        </mxCell>
        <mxCell id="xQus3RdIqMBXBSAXaxHi-53" value="&lt;b&gt;ADD Travelling Details&lt;/b&gt;" style="text;html=1;strokeColor=none;fillColor=none;align=center;verticalAlign=middle;whiteSpace=wrap;rounded=0;" vertex="1" parent="1">
          <mxGeometry x="360" y="740" width="140" height="20" as="geometry" />
        </mxCell>
        <mxCell id="xQus3RdIqMBXBSAXaxHi-56" style="edgeStyle=none;rounded=0;orthogonalLoop=1;jettySize=auto;html=1;exitX=0.75;exitY=0;exitDx=0;exitDy=0;endArrow=classicThin;endFill=1;" edge="1" parent="1" source="xQus3RdIqMBXBSAXaxHi-51" target="xQus3RdIqMBXBSAXaxHi-51">
          <mxGeometry relative="1" as="geometry" />
        </mxCell>
        <mxCell id="xQus3RdIqMBXBSAXaxHi-67" style="edgeStyle=none;rounded=0;orthogonalLoop=1;jettySize=auto;html=1;exitX=1;exitY=0.5;exitDx=0;exitDy=0;entryX=0.5;entryY=1;entryDx=0;entryDy=0;endArrow=classicThin;endFill=1;" edge="1" parent="1" source="xQus3RdIqMBXBSAXaxHi-59" target="xQus3RdIqMBXBSAXaxHi-66">
          <mxGeometry relative="1" as="geometry" />
        </mxCell>
        <mxCell id="xQus3RdIqMBXBSAXaxHi-59" value="&lt;b&gt;ADD New&amp;nbsp; Cab Details&lt;/b&gt;" style="text;html=1;strokeColor=none;fillColor=none;align=center;verticalAlign=middle;whiteSpace=wrap;rounded=0;" vertex="1" parent="1">
          <mxGeometry x="390" y="880" width="140" height="20" as="geometry" />
        </mxCell>
        <mxCell id="xQus3RdIqMBXBSAXaxHi-64" style="edgeStyle=none;rounded=0;orthogonalLoop=1;jettySize=auto;html=1;exitX=0;exitY=0.25;exitDx=0;exitDy=0;entryX=0.5;entryY=1;entryDx=0;entryDy=0;endArrow=classicThin;endFill=1;" edge="1" parent="1" source="xQus3RdIqMBXBSAXaxHi-60" target="xQus3RdIqMBXBSAXaxHi-63">
          <mxGeometry relative="1" as="geometry" />
        </mxCell>
        <mxCell id="xQus3RdIqMBXBSAXaxHi-60" value="&lt;b&gt;ADD New&amp;nbsp; Cab Details&lt;/b&gt;" style="text;html=1;strokeColor=none;fillColor=none;align=center;verticalAlign=middle;whiteSpace=wrap;rounded=0;" vertex="1" parent="1">
          <mxGeometry x="190" y="880" width="140" height="20" as="geometry" />
        </mxCell>
        <mxCell id="xQus3RdIqMBXBSAXaxHi-65" style="edgeStyle=none;rounded=0;orthogonalLoop=1;jettySize=auto;html=1;exitX=0.5;exitY=0;exitDx=0;exitDy=0;entryX=0;entryY=0.5;entryDx=0;entryDy=0;endArrow=classicThin;endFill=1;" edge="1" parent="1" source="xQus3RdIqMBXBSAXaxHi-63" target="xQus3RdIqMBXBSAXaxHi-11">
          <mxGeometry relative="1" as="geometry" />
        </mxCell>
        <mxCell id="xQus3RdIqMBXBSAXaxHi-63" value="&lt;b&gt;Reload&lt;/b&gt;" style="text;html=1;strokeColor=none;fillColor=none;align=center;verticalAlign=middle;whiteSpace=wrap;rounded=0;" vertex="1" parent="1">
          <mxGeometry x="80" y="850" width="140" height="20" as="geometry" />
        </mxCell>
        <mxCell id="xQus3RdIqMBXBSAXaxHi-68" style="edgeStyle=none;rounded=0;orthogonalLoop=1;jettySize=auto;html=1;exitX=0.5;exitY=0;exitDx=0;exitDy=0;entryX=1;entryY=0.25;entryDx=0;entryDy=0;endArrow=classicThin;endFill=1;" edge="1" parent="1" source="xQus3RdIqMBXBSAXaxHi-66" target="xQus3RdIqMBXBSAXaxHi-12">
          <mxGeometry relative="1" as="geometry" />
        </mxCell>
        <mxCell id="xQus3RdIqMBXBSAXaxHi-66" value="&lt;b&gt;Reload&lt;/b&gt;" style="text;html=1;strokeColor=none;fillColor=none;align=center;verticalAlign=middle;whiteSpace=wrap;rounded=0;" vertex="1" parent="1">
          <mxGeometry x="510" y="840" width="140" height="20" as="geometry" />
        </mxCell>
        <mxCell id="xQus3RdIqMBXBSAXaxHi-69" value="&lt;span style=&quot;font-family: helvetica; font-size: 15px; font-style: normal; letter-spacing: normal; text-align: center; text-indent: 0px; text-transform: none; word-spacing: 0px; background-color: rgb(248, 249, 250); display: inline; float: none;&quot;&gt;About Section&lt;/span&gt;" style="text;whiteSpace=wrap;html=1;fontColor=#FF0000;fontStyle=1;fontSize=15;" vertex="1" parent="1">
          <mxGeometry y="1480" width="120" height="30" as="geometry" />
        </mxCell>
        <mxCell id="xQus3RdIqMBXBSAXaxHi-70" value="&lt;span style=&quot;font-family: helvetica; font-size: 15px; font-style: normal; letter-spacing: normal; text-align: center; text-indent: 0px; text-transform: none; word-spacing: 0px; background-color: rgb(248, 249, 250); display: inline; float: none;&quot;&gt;Creater&#39;s Section&lt;/span&gt;" style="text;whiteSpace=wrap;html=1;fontColor=#FF0000;fontStyle=1;fontSize=15;" vertex="1" parent="1">
          <mxGeometry y="1530" width="140" height="30" as="geometry" />
        </mxCell>
        <mxCell id="xQus3RdIqMBXBSAXaxHi-71" value="&lt;span style=&quot;font-family: helvetica; font-size: 15px; font-style: normal; letter-spacing: normal; text-align: center; text-indent: 0px; text-transform: none; word-spacing: 0px; background-color: rgb(248, 249, 250); display: inline; float: none;&quot;&gt;CONTRIBUTE OR ISSUE SECTION&lt;/span&gt;" style="text;whiteSpace=wrap;html=1;fontColor=#FF0000;fontStyle=1;fontSize=15;" vertex="1" parent="1">
          <mxGeometry y="1590" width="300" height="30" as="geometry" />
        </mxCell>
        <mxCell id="xQus3RdIqMBXBSAXaxHi-74" style="edgeStyle=none;rounded=0;orthogonalLoop=1;jettySize=auto;html=1;exitX=0.5;exitY=1;exitDx=0;exitDy=0;entryX=0.435;entryY=0.022;entryDx=0;entryDy=0;entryPerimeter=0;endArrow=classicThin;endFill=1;" edge="1" parent="1" source="xQus3RdIqMBXBSAXaxHi-72" target="xQus3RdIqMBXBSAXaxHi-73">
          <mxGeometry relative="1" as="geometry" />
        </mxCell>
        <mxCell id="xQus3RdIqMBXBSAXaxHi-72" value="CONTRIBUTION FORM" style="rounded=0;whiteSpace=wrap;html=1;strokeColor=#000000;strokeWidth=1;" vertex="1" parent="1">
          <mxGeometry x="320" y="1640" width="120" height="60" as="geometry" />
        </mxCell>
        <mxCell id="xQus3RdIqMBXBSAXaxHi-73" value="&lt;b&gt;&lt;font style=&quot;font-size: 13px&quot;&gt;Record ISSUE DATA&lt;/font&gt;&lt;/b&gt;" style="text;html=1;align=center;verticalAlign=middle;resizable=0;points=[];autosize=1;" vertex="1" parent="1">
          <mxGeometry x="320" y="1720" width="140" height="20" as="geometry" />
        </mxCell>
        <mxCell id="xQus3RdIqMBXBSAXaxHi-76" value="IF NOT TRUE" style="text;html=1;align=center;verticalAlign=middle;resizable=0;points=[];autosize=1;" vertex="1" parent="1">
          <mxGeometry x="-35" y="470" width="90" height="20" as="geometry" />
        </mxCell>
        <mxCell id="xQus3RdIqMBXBSAXaxHi-78" value="IF TRUE" style="text;html=1;align=center;verticalAlign=middle;resizable=0;points=[];autosize=1;" vertex="1" parent="1">
          <mxGeometry x="200" y="530" width="60" height="20" as="geometry" />
        </mxCell>
        <mxCell id="xQus3RdIqMBXBSAXaxHi-81" value="" style="endArrow=none;html=1;strokeColor=#00CC00;strokeWidth=3;" edge="1" parent="1">
          <mxGeometry width="50" height="50" relative="1" as="geometry">
            <mxPoint x="-160" y="1800.888916015625" as="sourcePoint" />
            <mxPoint y="560" as="targetPoint" />
            <Array as="points">
              <mxPoint x="-160" y="700" />
              <mxPoint x="-160" y="560" />
            </Array>
          </mxGeometry>
        </mxCell>
        <mxCell id="xQus3RdIqMBXBSAXaxHi-82" value="&lt;span style=&quot;font-family: helvetica; font-size: 15px; font-style: normal; letter-spacing: normal; text-align: center; text-indent: 0px; text-transform: none; word-spacing: 0px; background-color: rgb(248, 249, 250); display: inline; float: none;&quot;&gt;Footer Section&lt;/span&gt;" style="text;whiteSpace=wrap;html=1;fontColor=#FF0000;fontStyle=1;fontSize=15;" vertex="1" parent="1">
          <mxGeometry y="1739" width="140" height="30" as="geometry" />
        </mxCell>
        <mxCell id="xQus3RdIqMBXBSAXaxHi-86" value="&lt;font style=&quot;font-size: 19px&quot; color=&quot;#00ff00&quot;&gt;&lt;b&gt;LANDING PAGE STRUCTURE&lt;/b&gt;&lt;/font&gt;" style="text;html=1;strokeColor=none;fillColor=none;align=center;verticalAlign=middle;whiteSpace=wrap;rounded=0;" vertex="1" parent="1">
          <mxGeometry x="-155" y="565" width="120" height="75" as="geometry" />
        </mxCell>
        <mxCell id="xQus3RdIqMBXBSAXaxHi-87" value="Profile" style="whiteSpace=wrap;html=1;" vertex="1" parent="1">
          <mxGeometry x="600" y="430" width="120" height="60" as="geometry" />
        </mxCell>
        <mxCell id="xQus3RdIqMBXBSAXaxHi-88" value="&lt;b&gt;To view and clear one&#39;s own entries in the database&lt;/b&gt;" style="text;html=1;strokeColor=none;fillColor=none;align=center;verticalAlign=middle;whiteSpace=wrap;rounded=0;" vertex="1" parent="1">
          <mxGeometry x="590" y="380" width="140" height="20" as="geometry" />
        </mxCell>
        <mxCell id="xQus3RdIqMBXBSAXaxHi-90" value="" style="endArrow=none;html=1;strokeColor=#00CC66;strokeWidth=3;" edge="1" parent="1">
          <mxGeometry width="50" height="50" relative="1" as="geometry">
            <mxPoint x="230" y="400" as="sourcePoint" />
            <mxPoint x="280" y="120" as="targetPoint" />
            <Array as="points">
              <mxPoint x="440" y="400" />
              <mxPoint x="440" y="120" />
            </Array>
          </mxGeometry>
        </mxCell>
        <mxCell id="xQus3RdIqMBXBSAXaxHi-91" value="&lt;font style=&quot;font-size: 19px&quot; color=&quot;#00ff00&quot;&gt;&lt;b&gt;LOGIN AND SIGNUP PAGE&lt;/b&gt;&lt;/font&gt;" style="text;html=1;strokeColor=none;fillColor=none;align=center;verticalAlign=middle;whiteSpace=wrap;rounded=0;" vertex="1" parent="1">
          <mxGeometry x="290" y="325" width="120" height="75" as="geometry" />
        </mxCell>
        <mxCell id="xQus3RdIqMBXBSAXaxHi-92" value="EVERY PAGE HAVE&amp;nbsp;&lt;br style=&quot;font-size: 16px;&quot;&gt;LOGOUT AND HOME&amp;nbsp;&lt;br style=&quot;font-size: 16px;&quot;&gt;OPTION&lt;br style=&quot;font-size: 16px;&quot;&gt;&lt;br style=&quot;font-size: 16px;&quot;&gt;LOGOUT--&amp;gt;LOGIN PAGE&lt;br style=&quot;font-size: 16px;&quot;&gt;HOME--&amp;gt;LANDING Page" style="text;html=1;align=left;verticalAlign=middle;resizable=0;points=[];autosize=1;fontSize=16;fontColor=#0000CC;fontStyle=1" vertex="1" parent="1">
          <mxGeometry x="-150" y="655" width="200" height="120" as="geometry" />
        </mxCell>
      </root>
    </mxGraphModel>
  </diagram>
</mxfile>
